<svg width="120" height="24" fill="none" xmlns="http://www.w3.org/2000/svg"><path d="M12 17.25L5.812 21l1.641-7.031-5.437-4.735 7.171-.609L12 2.015l2.813 6.61 7.171.61-5.437 4.734L18.187 21 12 17.25z" fill="url(#paint0_linear_18447:184)"/><path d="M36 17.25L29.812 21l1.641-7.031-5.437-4.735 7.172-.609L36 2.015l2.813 6.61 7.171.61-5.437 4.734L42.187 21 36 17.25z" fill="url(#paint1_linear_18447:184)"/><path d="M60 17.25L53.812 21l1.641-7.031-5.437-4.735 7.172-.609L60 2.015l2.813 6.61 7.171.61-5.437 4.734L66.187 21 60 17.25z" fill="url(#paint2_linear_18447:184)"/><path d="M84 17.25L77.812 21l1.641-7.031-5.437-4.735 7.171-.609L84 2.015l2.813 6.61 7.171.61-5.437 4.734L90.187 21 84 17.25z" fill="url(#paint3_linear_18447:184)"/><path d="M107.736 17.25L101.549 21l1.64-7.031-5.437-4.735 7.172-.609 2.812-6.61 2.813 6.61 7.172.61-5.438 4.734L113.924 21l-6.188-3.75z" fill="url(#paint4_linear_18447:184)"/><defs><linearGradient id="paint0_linear_18447:184" x1="12" y1="0" x2="12" y2="24" gradientUnits="userSpaceOnUse"><stop stop-color="#BC9CFF"/><stop offset="1" stop-color="#8BA4F9"/></linearGradient><linearGradient id="paint1_linear_18447:184" x1="36" y1="0" x2="36" y2="24" gradientUnits="userSpaceOnUse"><stop stop-color="#BC9CFF"/><stop offset="1" stop-color="#8BA4F9"/></linearGradient><linearGradient id="paint2_linear_18447:184" x1="60" y1="0" x2="60" y2="24" gradientUnits="userSpaceOnUse"><stop stop-color="#BC9CFF"/><stop offset="1" stop-color="#8BA4F9"/></linearGradient><linearGradient id="paint3_linear_18447:184" x1="84" y1="0" x2="84" y2="24" gradientUnits="userSpaceOnUse"><stop stop-color="#BC9CFF"/><stop offset="1" stop-color="#8BA4F9"/></linearGradient><linearGradient id="paint4_linear_18447:184" x1="107.736" y1="0" x2="107.736" y2="24" gradientUnits="userSpaceOnUse"><stop stop-color="#BC9CFF"/><stop offset="1" stop-color="#8BA4F9"/></linearGradient></defs></svg>