<svg width="120" height="24" viewBox="0 0 120 24" fill="none" xmlns="http://www.w3.org/2000/svg">
          <path d="M36 15.4219L39.75 17.6719L38.7656 13.4062L42.0938 10.5L37.6875 10.125L36 6.09375L34.3125 10.125L29.9062 10.5L33.2344 13.4062L32.25 17.6719L36 15.4219ZM45.9844 9.23438L40.5469 13.9688L42.1875 21L36 17.25L29.8125 21L31.4531 13.9688L26.0156 9.23438L33.1875 8.625L36 2.01562L38.8125 8.625L45.9844 9.23438Z" fill="url(#a)"/>
          <path d="M12 15.4219L15.75 17.6719L14.7656 13.4062L18.0938 10.5L13.6875 10.125L12 6.09375L10.3125 10.125L5.90625 10.5L9.23438 13.4062L8.25 17.6719L12 15.4219ZM21.9844 9.23438L16.5469 13.9688L18.1875 21L12 17.25L5.8125 21L7.45312 13.9688L2.01562 9.23438L9.1875 8.625L12 2.01562L14.8125 8.625L21.9844 9.23438Z" fill="url(#b)"/>
          <path d="M84 15.4219L87.75 17.6719L86.7656 13.4062L90.0938 10.5L85.6875 10.125L84 6.09375L82.3125 10.125L77.9062 10.5L81.2344 13.4062L80.25 17.6719L84 15.4219ZM93.9844 9.23438L88.5469 13.9688L90.1875 21L84 17.25L77.8125 21L79.4531 13.9688L74.0156 9.23438L81.1875 8.625L84 2.01562L86.8125 8.625L93.9844 9.23438Z" fill="url(#c)"/>
          <path d="M60 15.4219L63.75 17.6719L62.7656 13.4062L66.0938 10.5L61.6875 10.125L60 6.09375L58.3125 10.125L53.9062 10.5L57.2344 13.4062L56.25 17.6719L60 15.4219ZM69.9844 9.23438L64.5469 13.9688L66.1875 21L60 17.25L53.8125 21L55.4531 13.9688L50.0156 9.23438L57.1875 8.625L60 2.01562L62.8125 8.625L69.9844 9.23438Z" fill="url(#d)"/>
          <path d="M107.699 15.4219L111.449 17.6719L110.465 13.4062L113.793 10.5L109.387 10.125L107.699 6.09375L106.012 10.125L101.605 10.5L104.934 13.4062L103.949 17.6719L107.699 15.4219ZM117.684 9.23438L112.246 13.9688L113.887 21L107.699 17.25L101.512 21L103.152 13.9688L97.7148 9.23438L104.887 8.625L107.699 2.01562L110.512 8.625L117.684 9.23438Z" fill="url(#e)"/>
          <defs>
          <linearGradient id="a" x1="36" y1="0" x2="36" y2="24" gradientUnits="userSpaceOnUse">
          <stop stop-color="#BC9CFF"/>
          <stop offset="1" stop-color="#8BA4F9"/>
          </linearGradient>
          <linearGradient id="b" x1="12" y1="0" x2="12" y2="24" gradientUnits="userSpaceOnUse">
          <stop stop-color="#BC9CFF"/>
          <stop offset="1" stop-color="#8BA4F9"/>
          </linearGradient>
          <linearGradient id="c" x1="84" y1="0" x2="84" y2="24" gradientUnits="userSpaceOnUse">
          <stop stop-color="#BC9CFF"/>
          <stop offset="1" stop-color="#8BA4F9"/>
          </linearGradient>
          <linearGradient id="d" x1="60" y1="0" x2="60" y2="24" gradientUnits="userSpaceOnUse">
          <stop stop-color="#BC9CFF"/>
          <stop offset="1" stop-color="#8BA4F9"/>
          </linearGradient>
          <linearGradient id="e" x1="107.699" y1="0" x2="107.699" y2="24" gradientUnits="userSpaceOnUse">
          <stop stop-color="#BC9CFF"/>
          <stop offset="1" stop-color="#8BA4F9"/>
          </linearGradient>
          </defs>
          </svg> 